<svg width="100" height="100" viewBox="0 0 100 100" xmlns="http://www.w3.org/2000/svg"><path fill="#FFFFFF" fill-rule="evenodd" d="M72.25 19.786a11.56 11.56 0 00-5.26 1.258 17.97 17.97 0 01-3.204 17.528 27 27 0 015.406 3.993l.04.038a11.608 11.608 0 103.018-22.817M23 59a2 2 0 01.064-.503 23.9 23.9 0 013.623-11.07c.391-.617.813-1.212 1.257-1.786l-.194.002a15.12 15.12 0 01-10.125-3.872 15.18 15.18 0 00-8.598 12.8H9V69.75A6.25 6.25 0 0015.25 76H23zm7.768-16.397.04-.038a27 27 0 015.406-3.993 18.02 18.02 0 01-3.203-17.528 11.607 11.607 0 10-2.244 21.559m60.206 11.968a15.18 15.18 0 00-8.597-12.8 15.12 15.12 0 01-10.126 3.872l-.194-.002c.444.574.866 1.169 1.257 1.787a23.9 23.9 0 013.623 11.07A2 2 0 0177 59v17h14V54.572zM74.964 59c-.427-7.74-4.8-14.366-11.038-17.699a21.17 21.17 0 01-13.435 5.193q-.245.006-.491.006h-.002q-.245 0-.49-.006a21.16 21.16 0 01-13.434-5.193C29.837 44.634 25.464 51.26 25.036 59H25v21.25c0 4.833 3.731 8.75 8.333 8.75H75V59zM66 27a16 16 0 11-16-16 16 16 0 0116 16"/></svg>