<svg width="100" height="100" viewBox="0 0 100 100" xmlns="http://www.w3.org/2000/svg"><path fill="#FFFFFF" fill-rule="evenodd" d="M80 17.5H70v-3.8c0-2.071-1.679-3.7-3.75-3.7a3.75 3.75 0 00-3.75 3.75v3.75H35.001L35 13.75a3.75 3.75 0 00-7.5 0v3.75H10V80a7.5 7.5 0 007.5 7.5h70V25a7.5 7.5 0 00-7.5-7.5m2.5 65H18.75A3.75 3.75 0 0115 78.75V40h63.75a3.75 3.75 0 013.75 3.75zM25 26.25a6.24 6.24 0 012.5-5v5a3.75 3.75 0 007.5 0V25h.001v-3.75a6.25 6.25 0 11-10.001 5m35 0a6.24 6.24 0 012.5-5v5a3.75 3.75 0 007.5 0L69.999 25H70v-3.7a6.15 6.15 0 012.5 4.95 6.25 6.25 0 01-12.5 0M23.75 45a3.75 3.75 0 103.75 3.75A3.75 3.75 0 0023.75 45m48.75 1.2H35c-1.38 0-2.5 1.17-2.5 2.55s1.12 2.45 2.5 2.45h37.5c1.38 0 2.5-1.07 2.5-2.45s-1.12-2.55-2.5-2.55M23.75 57.5a3.75 3.75 0 103.75 3.75 3.75 3.75 0 00-3.75-3.75m48.75 1.2H35c-1.38 0-2.5 1.17-2.5 2.55s1.12 2.45 2.5 2.45h37.5c1.38 0 2.5-1.07 2.5-2.45s-1.12-2.55-2.5-2.55M23.75 70a3.75 3.75 0 103.75 3.75A3.75 3.75 0 0023.75 70m48.75 1.2H35c-1.38 0-2.5 1.17-2.5 2.55s1.12 2.45 2.5 2.45h37.5c1.38 0 2.5-1.07 2.5-2.45s-1.12-2.55-2.5-2.55"/></svg>