<svg width="100" height="100" viewBox="0 0 100 100" xmlns="http://www.w3.org/2000/svg"><path fill="#FFFFFF" fill-rule="evenodd" d="M82.5 37.5V35l-15-15H60v-3.75A1.25 1.25 0 0058.75 15h-2.5A1.25 1.25 0 0055 16.25V20H40v-3.75A1.25 1.25 0 0038.75 15h-2.5A1.25 1.25 0 0035 16.25V20h-7.5l-15 15v2.5h5V85H15v2.5h65V85h-2.5V37.5zM35 77.5H25V70a5 5 0 015-5 5 5 0 015 5zm0-25H25V45a5 5 0 015-5 5 5 0 015 5zM52.5 85h-10V70a5 5 0 015-5 5 5 0 015 5zm0-32.5h-10V45a5 5 0 015-5 5 5 0 015 5zm17.5 25H60V70a5 5 0 015-5 5 5 0 015 5zm0-25H60V45a5 5 0 015-5 5 5 0 015 5z"/></svg>