<svg width="100" height="100" viewBox="0 0 100 100" xmlns="http://www.w3.org/2000/svg"><path fill="#000000" fill-rule="evenodd" d="M29.745 27a5.77 5.77 0 00-7.845.3l-2.31 2.312a5.78 5.78 0 00-.425 7.7l18.482 23.12a5.77 5.77 0 009.019 0l36.965-46.24a5.776 5.776 0 00-8.458-7.826L41 39.48Zm50.193-4.63-6.992 8.74A32.4 32.4 0 0175 42.5C75 60.449 60.449 75 42.5 75S10 60.449 10 42.5 24.551 10 42.5 10a32.35 32.35 0 0119.144 6.237L68.909 9.2A42.32 42.32 0 0042.5 0C19.028 0 0 19.028 0 42.5S19.028 85 42.5 85 85 65.972 85 42.5a42.3 42.3 0 00-5.062-20.131Z"/></svg>