<svg width="100" height="100" viewBox="0 0 100 100" xmlns="http://www.w3.org/2000/svg"><path fill="#FFFFFF" fill-rule="evenodd" d="M72.623 85H27.377A2.377 2.377 0 0125 82.623V17.377A2.377 2.377 0 0127.377 15h45.246A2.377 2.377 0 0175 17.377v5.246A2.377 2.377 0 0077.377 25h2.746a2.377 2.377 0 002.377-2.377v-9.9A5.223 5.223 0 0077.277 7.5H22.424a4.924 4.924 0 00-4.924 4.924v74.654a5.42 5.42 0 005.422 5.422h54.343a5.235 5.235 0 005.235-5.235v-9.888A2.377 2.377 0 0080.123 75h-2.746A2.377 2.377 0 0075 77.377v5.246A2.377 2.377 0 0172.623 85M57.5 62.5H40c-2.514 0-5-2.569-5-5v-15c0-2.431 2.486-5 5-5h17.5V25l23.346 21.05a5.68 5.68 0 011.654 4 5.68 5.68 0 01-1.654 4L57.5 75z"/></svg>