<svg xmlns="http://www.w3.org/2000/svg" xmlns:xlink="http://www.w3.org/1999/xlink">
<symbol fill="currentColor" viewBox="0 0 1000 1000" id="calendar-event-agenda"><path d="M800 175H700v-38c0-20.71-16.789-37-37.5-37a37.5 37.5 0 0 0-37.5 37.5V175H350.011L350 137.5a37.5 37.5 0 0 0-75 0V175H100v625a75 75 0 0 0 75 75h700V250a75 75 0 0 0-75-75m25 650H187.5a37.5 37.5 0 0 1-37.5-37.5V400h637.5a37.5 37.5 0 0 1 37.5 37.5zM250 262.5a62.4 62.4 0 0 1 25-50v50a37.5 37.5 0 0 0 75 0V250h.011v-37.493A62.5 62.5 0 1 1 250 262.5m350 0a62.4 62.4 0 0 1 25-50v50a37.5 37.5 0 0 0 75 0l-.011-12.5H700v-37a61.47 61.47 0 0 1 25 49.5 62.5 62.5 0 0 1-125 0M237.5 450a37.5 37.5 0 1 0 37.5 37.5 37.5 37.5 0 0 0-37.5-37.5M725 462H350c-13.807 0-25 11.693-25 25.5s11.193 24.5 25 24.5h375c13.807 0 25-10.693 25-24.5S738.807 462 725 462M237.5 575a37.5 37.5 0 1 0 37.5 37.5 37.5 37.5 0 0 0-37.5-37.5M725 587H350c-13.807 0-25 11.693-25 25.5s11.193 24.5 25 24.5h375c13.807 0 25-10.693 25-24.5S738.807 587 725 587M237.5 700a37.5 37.5 0 1 0 37.5 37.5 37.5 37.5 0 0 0-37.5-37.5M725 712H350c-13.807 0-25 11.693-25 25.5s11.193 24.5 25 24.5h375c13.807 0 25-10.693 25-24.5S738.807 712 725 712" style="fill-rule:evenodd"/></symbol>
<symbol fill="currentColor" viewBox="0 0 1000 1000" id="delete"><path d="M817.493 676.165a49.977 49.977 0 0 1 0 70.664l-70.664 70.664a49.977 49.977 0 0 1-70.664 0L499.5 640.828 322.835 817.493a49.977 49.977 0 0 1-70.664 0l-70.664-70.664a49.977 49.977 0 0 1 0-70.664L358.172 499.5 181.507 322.835a49.977 49.977 0 0 1 0-70.664l70.664-70.664a49.977 49.977 0 0 1 70.664 0L499.5 358.172l176.665-176.665a49.977 49.977 0 0 1 70.664 0l70.664 70.664a49.977 49.977 0 0 1 0 70.664L640.828 499.5Z" style="fill-rule:evenodd"/></symbol>
<symbol fill="currentColor" viewBox="0 0 1000 1000" id="filter"><path d="M900 125v75L575 525v400L425 775V525L100 200v-75a50.005 50.005 0 0 1 50-50h700a50.005 50.005 0 0 1 50 50" style="fill-rule:evenodd"/></symbol>
<symbol fill="currentColor" viewBox="0 0 1000 1000" id="form-chevron-left"><path d="M604.5 208 396.286 416.214 313 499.5l83.286 83.286L604.5 791l83.286-83.286L479.57 499.5l208.215-208.214z"/></symbol>
<symbol fill="currentColor" viewBox="0 0 1000 1000" id="form-chevron-right"><path d="M396.286 791 604.5 582.786l83.286-83.286-83.286-83.286L396.286 208 313 291.286 521.214 499.5 313 707.714z"/></symbol>
<symbol fill="currentColor" viewBox="0 0 1000 1000" id="gathering"><path d="M722.5 197.857a115.6 115.6 0 0 0-52.6 12.581 179.7 179.7 0 0 1-32.039 175.282 269.5 269.5 0 0 1 54.055 39.932c.139.123.272.254.409.378A116.081 116.081 0 1 0 722.5 197.857M230 590a20 20 0 0 1 .637-5.025 239.1 239.1 0 0 1 36.23-110.7c3.916-6.179 8.129-12.128 12.575-17.868-.647.008-1.293.023-1.942.023a151.2 151.2 0 0 1-101.254-38.719 151.83 151.83 0 0 0-85.977 128H90V697.5a62.5 62.5 0 0 0 62.5 62.5H230zm77.675-163.97c.138-.124.27-.255.409-.378a269.5 269.5 0 0 1 54.055-39.932 180.16 180.16 0 0 1-32.033-175.283 116.065 116.065 0 1 0-22.431 215.593m602.056 119.685a151.83 151.83 0 0 0-85.976-128A151.2 151.2 0 0 1 722.5 456.43c-.649 0-1.295-.015-1.942-.023 4.446 5.74 8.659 11.689 12.575 17.868a239.1 239.1 0 0 1 36.23 110.7A20 20 0 0 1 770 590v170h140V545.715zM749.643 590c-4.278-77.4-48.008-143.663-110.383-176.99a211.65 211.65 0 0 1-134.349 51.93q-2.448.06-4.911.06h-.019q-2.454 0-4.892-.06a211.64 211.64 0 0 1-134.349-51.93C298.365 446.337 254.635 512.6 250.357 590H250v212.5c0 48.326 37.31 87.5 83.334 87.5H750V590zM660 270a160 160 0 1 1-160-160 160 160 0 0 1 160 160" style="fill-rule:evenodd"/></symbol>
<symbol fill="currentColor" viewBox="0 0 1000 1000" id="group"><path d="M338 875V696.837A100.18 100.18 0 0 1 263 600V487.5a187.2 187.2 0 0 1 17.626-79.433 166.44 166.44 0 0 1-107.2-45.325A152.94 152.94 0 0 0 88 500v119.118C88 658.1 120.015 690 159 690v185a49.65 49.65 0 0 0 49.588 50h148.57A74.7 74.7 0 0 1 338 875m489.576-512.258a166.44 166.44 0 0 1-107.2 45.325A187.2 187.2 0 0 1 738 487.5V600a100.18 100.18 0 0 1-75 96.837V875a74.7 74.7 0 0 1-19.158 50h148.57A49.65 49.65 0 0 0 842 875V690c38.985 0 71-31.9 71-70.882V500a152.94 152.94 0 0 0-85.424-137.258M713 125a124.4 124.4 0 0 0-65.376 18.446c.9 1.913 1.769 3.84 2.6 5.794a162.38 162.38 0 0 1-24.162 166.435l7.231 3.564a187.9 187.9 0 0 1 66.676 55.086A125 125 0 1 0 713 125m-75 87.5A137.5 137.5 0 1 1 500.5 75 137.5 137.5 0 0 1 638 212.5m-15.763 129.164a177.47 177.47 0 0 1-243.474 0A162.5 162.5 0 0 0 288 487.5V600a75 75 0 0 0 75 75v200a50 50 0 0 0 50 50h175a50 50 0 0 0 50-50V675a75 75 0 0 0 75-75V487.5a162.5 162.5 0 0 0-90.763-145.836m-321.2 32.661a187.9 187.9 0 0 1 66.676-55.086l7.231-3.564A162.7 162.7 0 0 1 350.78 149.24c.827-1.954 1.7-3.881 2.6-5.794A125 125 0 1 0 288 375a126 126 0 0 0 13.035-.675Z" style="fill-rule:evenodd"/></symbol>
<symbol fill="currentColor" viewBox="0 0 1000 1000" id="house"><path d="M825 375v-25L675 200h-75v-37.5a12.5 12.5 0 0 0-12.5-12.5h-25a12.5 12.5 0 0 0-12.5 12.5V200H400v-37.5a12.5 12.5 0 0 0-12.5-12.5h-25a12.5 12.5 0 0 0-12.5 12.5V200h-75L125 350v25h50v475h-25v25h650v-25h-25V375zM350 775H250v-75a50 50 0 0 1 50-50 50 50 0 0 1 50 50zm0-250H250v-75a50 50 0 0 1 50-50 50 50 0 0 1 50 50zm175 325H425V700a50 50 0 0 1 50-50 50 50 0 0 1 50 50zm0-325H425v-75a50 50 0 0 1 50-50 50 50 0 0 1 50 50zm175 250H600v-75a50 50 0 0 1 50-50 50 50 0 0 1 50 50zm0-250H600v-75a50 50 0 0 1 50-50 50 50 0 0 1 50 50z" style="fill-rule:evenodd"/></symbol>
<symbol fill="currentColor" viewBox="0 0 1000 1000" id="more-dots"><circle cx="200" cy="500" r="100"/><circle cx="500" cy="500" r="100"/><circle cx="800" cy="500" r="100"/></symbol>
<symbol fill="currentColor" viewBox="0 0 1000 1000" id="network-optical-transport"><path d="M500 75C265.3 75 75 265.3 75 500s190.3 425 425 425 425-190.3 425-425S734.7 75 500 75m130 325c-3.5 0-6.8 1.1-9.6 3.3L532.5 500l88 96.8c2.8 2.1 6.1 3.3 9.6 3.3h94.6v-50l73.9 63.5c6.6 5.7 7.4 15.6 1.7 22.2q-.75.9-1.8 1.8L724.7 700v-50H610.2c-3.5 0-6.8-1.1-9.6-3.3L499.8 535.9 399.1 646.7c-2.7 2.1-6.1 3.3-9.6 3.3H250v50l-73.4-62.6c-6.6-5.6-7.5-15.6-1.8-22.2.5-.6 1.1-1.2 1.7-1.8L250 550v50h119.5c3.5 0 6.8-1.1 9.6-3.3l88-96.8-87.9-96.7c-2.8-2.1-6.1-3.3-9.6-3.3H250v50l-73.5-63.5c-6.6-5.7-7.4-15.6-1.7-22.2q.75-.9 1.8-1.8L250 300v50h139.5c3.5 0 6.8 1.1 9.6 3.3L499.8 464l100.7-110.7c2.7-2.1 6.1-3.3 9.6-3.3h114.5v-50l73.8 62.6c6.6 5.6 7.5 15.6 1.8 22.2q-.75.9-1.8 1.8L724.6 450v-50z"/></symbol>
<symbol fill="currentColor" viewBox="0 0 1000 1000" id="pencil"><path d="m876.2 238.316-51.077-51.108-63.846-63.884a81.08 81.08 0 0 0-68.3-23.078q-1.067.141-2.131.32a81 81 0 0 0-13.825 3.471l-.091.03a80.9 80.9 0 0 0-30.578 19.257L186.663 583.292l-53.526 176.424-13.253 43.678-18.684 61.59a29 29 0 0 0-.485 1.827c-.045.192-.078.383-.119.575-.087.415-.17.83-.238 1.242-.037.227-.066.453-.1.68a26 26 0 0 0-.245 2.931q-.01.345-.013.689.001.564.025 1.123c.008.211.013.422.027.632.027.425.069.847.116 1.267.018.152.028.305.048.456q.111.855.276 1.693c.021.108.05.214.072.322q.143.673.313 1.334c.051.191.11.379.165.568q.15.531.323 1.053.106.31.219.617a27 27 0 0 0 .629 1.586q.207.473.431.935c.095.2.188.393.288.587.164.322.339.638.516.952.095.171.188.343.287.511q.342.576.713 1.134c.059.09.114.183.175.273q.464.685.969 1.341c.1.127.2.248.3.373.246.308.493.614.752.911.135.156.277.307.415.46q.35.387.713.76.233.236.472.467.361.352.736.69.246.227.5.443.39.335.792.655c.167.132.331.266.5.395.3.228.6.445.912.66.147.1.29.21.438.309q.688.463 1.405.885.032.019.065.036.687.4 1.4.759c.162.082.329.156.494.235.337.163.677.323 1.022.472q.298.124.592.241a26 26 0 0 0 1.61.591q.493.162.995.306.317.093.638.177c.352.092.706.172 1.062.249.2.044.4.091.6.129.415.08.835.145 1.256.206.147.021.291.048.438.067q.856.106 1.726.159c.117.007.236.006.353.011.4.019.8.037 1.208.037.056 0 .113-.006.169-.006.358 0 .719-.023 1.08-.04.283-.013.565-.019.85-.041.377-.03.758-.081 1.137-.127.272-.033.542-.056.814-.1.421-.064.845-.153 1.269-.237.233-.047.466-.082.7-.135q.963-.219 1.93-.51c.017 0 .034-.008.051-.014l21.618-6.566 83.587-25.391 176.317-53.56 262.68-262.838L876.2 353.308a80.93 80.93 0 0 0 22.163-41.279q.136-.669.26-1.338.611-3.294.95-6.62c.026-.248.053-.5.076-.744q.342-3.7.35-7.422v-.093a81.08 81.08 0 0 0-23.799-57.496M359.047 755.779l37.419 37.442-176.318 53.559-66.969-67.01 53.527-176.424 37.419 37.441 459.69-459.967 19.154 19.165-459.691 459.968 76.615 76.661 459.691-459.968 19.154 19.166Z" style="fill-rule:evenodd"/></symbol>
<symbol fill="currentColor" viewBox="0 0 1000 1000" id="reload"><path d="m782.856 217.17-.013-.013a400 400 0 0 0-565.686 0c-156.21 156.21-156.21 409.476 0 565.686a400 400 0 0 0 565.686 0L676.777 676.777a250 250 0 1 1 0-353.554l.028.027L575.083 425H825a50 50 0 0 0 50-50V125Z" style="fill-rule:evenodd"/></symbol>
<symbol fill="currentColor" viewBox="0 0 1000 1000" id="session-leave"><path d="M726.227 850H273.773A23.774 23.774 0 0 1 250 826.227V173.773A23.774 23.774 0 0 1 273.773 150h452.454A23.774 23.774 0 0 1 750 173.773v52.454A23.774 23.774 0 0 0 773.773 250h27.454A23.774 23.774 0 0 0 825 226.227v-99A52.23 52.23 0 0 0 772.77 75H224.238A49.24 49.24 0 0 0 175 124.238v746.539A54.22 54.22 0 0 0 229.223 925h543.429A52.35 52.35 0 0 0 825 872.652v-98.879A23.774 23.774 0 0 0 801.227 750h-27.454A23.774 23.774 0 0 0 750 773.773v52.454A23.774 23.774 0 0 1 726.227 850M575 625H400c-25.141 0-50-25.687-50-50V425c0-24.313 24.859-50 50-50h175V250l233.46 210.5a56.8 56.8 0 0 1 16.54 40 56.8 56.8 0 0 1-16.542 40L575 750z" style="fill-rule:evenodd"/></symbol>
<symbol fill="currentColor" viewBox="0 0 1000 1000" id="sort-by"><path d="M850 825H424a50 50 0 0 1 0-100h426a50 50 0 0 1 0 100M699 674H423a50 50 0 0 1 0-100h276a50 50 0 0 1 0 100M550 525H425a50 50 0 0 1 0-100h125a50 50 0 0 1 0 100M374.3 360.819 325 311.525V773.5a50.5 50.5 0 0 1-50.5 50.5c-27.89 0-49.5-22.61-49.5-50.5V311.537l-49.368 49.368a48.5 48.5 0 1 1-68.59-68.589l128.28-128.28a48.36 48.36 0 0 1 38.412-14c.422-.011.841-.032 1.266-.032.963 0 2.051-.054 3 0a48.1 48.1 0 0 1 36.678 14.2L442.8 292.316a48.439 48.439 0 1 1-68.5 68.503" style="fill-rule:evenodd"/></symbol>
</svg>